<svg width="100" height="24" viewBox="0 0 100 24" fill="none" xmlns="http://www.w3.org/2000/svg">
  <path d="M15.9591 0H7.04093C7.04093 2.72196 8.35542 5.32918 10.6932 7.04093L7.04093 10.6932C2.72196 6.37423 0 0 0 0H15.9591V0Z" fill="#2684FF"/>
  <path d="M11.3068 7.04093C13.6446 5.32918 14.9591 2.72196 14.9591 0H23.8773C23.8773 0 21.1553 6.37423 16.8364 10.6932L11.3068 7.04093Z" fill="url(#paint0_linear)"/>
  <path d="M11.3068 16.8364L14.9591 13.1841C19.2781 17.5031 22 23.8773 22 23.8773H6.04093C6.04093 21.1553 4.72644 18.5481 2.38864 16.8364L7.91819 13.1841C9.01856 14.2845 10.2064 14.2845 11.3068 16.8364Z" fill="#2684FF"/>
  <defs>
    <linearGradient id="paint0_linear" x1="17.9182" y1="0" x2="17.9182" y2="10.6932" gradientUnits="userSpaceOnUse">
      <stop offset="0" stop-color="#0052CC"/>
      <stop offset="1" stop-color="#2684FF"/>
    </linearGradient>
  </defs>
</svg>